<?xml version="1.0" encoding="UTF-8"?>
<svg width="1920px" height="1080px" viewBox="0 0 1920 1080" version="1.1" xmlns="http://www.w3.org/2000/svg" xmlns:xlink="http://www.w3.org/1999/xlink">
    <!-- Generator: Sketch 57.1 (83088) - https://sketch.com -->
    <title>Background</title>
    <desc>Created with Sketch.</desc>
    <defs>
        <rect id="path-1" x="0" y="0" width="1920" height="1080"></rect>
    </defs>
    <g id="Home-Page" stroke="none" stroke-width="1" fill="none" fill-rule="evenodd">
        <g id="NewComputerPage">
            <g id="Background">
                <mask id="mask-2" fill="white">
                    <use xlink:href="#path-1"></use>
                </mask>
                <use id="Mask" fill="#252527" xlink:href="#path-1"></use>
                <g id="Group-9" opacity="0.195135939" mask="url(#mask-2)">
                    <g transform="translate(-85.000000, 203.000000)">
                        <g id="Group" transform="translate(239.000000, 550.000000)">
                            <g id="Group-2" transform="translate(0.837174, 0.228509)">
                                <rect id="Rectangle" fill="#0D5191" x="0" y="0" width="74.5115228" height="25.2734337" rx="12.6367169"></rect>
                                <rect id="Rectangle" fill="#1F87D1" x="99.3486971" y="0" width="149.023046" height="25.2734337" rx="12.6367169"></rect>
                                <rect id="Rectangle" fill="#1F87D1" x="335.301853" y="0" width="111.767284" height="25.2734337" rx="12.6367169"></rect>
                                <rect id="Rectangle" fill="#A8A048" x="471.906311" y="0" width="111.767284" height="25.2734337" rx="12.6367169"></rect>
                                <rect id="Rectangle" fill="#C0C1C2" x="273.208917" y="0" width="37.2557614" height="25.2734337" rx="12.6367169"></rect>
                            </g>
                        </g>
                        <g id="Group-5" transform="translate(13.000000, 86.000000)">
                            <g id="Group-2" transform="translate(0.000000, 0.000000)">
                                <rect id="Rectangle" fill="#1F87D1" x="0" y="0" width="210.985714" height="24.7322823" rx="12.3661412"></rect>
                                <rect id="Rectangle" fill="#A8A048" x="235.807563" y="0" width="136.520168" height="24.7322823" rx="12.3661412"></rect>
                                <rect id="Rectangle" fill="#1F87D1" x="397.14958" y="0" width="148.931092" height="24.7322823" rx="12.3661412"></rect>
                            </g>
                            <g id="Group-2" transform="translate(847.000000, 316.000000)">
                                <rect id="Rectangle" fill="#1F87D1" x="0" y="0" width="210.985714" height="24.7322823" rx="12.3661412"></rect>
                                <rect id="Rectangle" fill="#A8A048" x="235.807563" y="0" width="136.520168" height="24.7322823" rx="12.3661412"></rect>
                                <rect id="Rectangle" fill="#1F87D1" x="397.14958" y="0" width="148.931092" height="24.7322823" rx="12.3661412"></rect>
                            </g>
                            <g id="Group-2" transform="translate(190.000000, 576.562988)">
                                <rect id="Rectangle" fill="#9246AA" x="0" y="0" width="124.109244" height="24.7322823" rx="12.3661412"></rect>
                                <rect id="Rectangle" fill="#1F87D1" x="148.931092" y="0" width="148.931092" height="24.7322823" rx="12.3661412"></rect>
                            </g>
                            <g id="Group-2" transform="translate(190.000000, 576.562988)">
                                <rect id="Rectangle" fill="#9246AA" x="0" y="0" width="124.109244" height="24.7322823" rx="12.3661412"></rect>
                                <rect id="Rectangle" fill="#1F87D1" x="148.931092" y="0" width="148.931092" height="24.7322823" rx="12.3661412"></rect>
                            </g>
                        </g>
                        <g id="Group-3" transform="translate(212.000000, 0.000000)">
                            <rect id="Rectangle" fill="#9246AA" x="0" y="0" width="124" height="26.5090909" rx="13.2545455"></rect>
                            <rect id="Rectangle" fill="#AA7046" x="148.8" y="0" width="99.2" height="26.5090909" rx="13.2545455"></rect>
                        </g>
                        <g id="Group-3" transform="translate(1445.000000, 616.000000)">
                            <rect id="Rectangle" fill="#9246AA" x="0" y="0" width="124.444444" height="26.5090909" rx="13.2545455"></rect>
                            <rect id="Rectangle" fill="#9246AA" x="298.666667" y="0" width="62.2222222" height="26.5090909" rx="13.2545455"></rect>
                            <rect id="Rectangle" fill="#AA7046" x="385.777778" y="0" width="174.222222" height="26.5090909" rx="13.2545455"></rect>
                            <rect id="Rectangle" fill="#1F87D1" x="149.333333" y="0" width="124.444444" height="26.5090909" rx="13.2545455"></rect>
                        </g>
                        <g id="Group-3" transform="translate(0.000000, 747.000000)">
                            <rect id="Rectangle" fill="#9246AA" x="0" y="0" width="136.70137" height="26.5090909" rx="13.2545455"></rect>
                            <rect id="Rectangle" fill="#A8A048" x="161.556164" y="0" width="173.983562" height="26.5090909" rx="13.2545455"></rect>
                        </g>
                    </g>
                </g>
                <g id="Group-9" opacity="0.195135939" mask="url(#mask-2)">
                    <g transform="translate(762.000000, 39.000000)" id="Group-3">
                        <g transform="translate(155.000000, 870.000000)">
                            <rect id="Rectangle" fill="#9246AA" x="0" y="0" width="124" height="26.5090909" rx="13.2545455"></rect>
                            <rect id="Rectangle" fill="#AA7046" x="148.8" y="0" width="99.2" height="26.5090909" rx="13.2545455"></rect>
                        </g>
                        <g transform="translate(983.000000, 0.000000)">
                            <rect id="Rectangle" fill="#9246AA" x="0" y="0" width="124" height="26.5090909" rx="13.2545455"></rect>
                            <rect id="Rectangle" fill="#AA7046" x="148.8" y="0" width="99.2" height="26.5090909" rx="13.2545455"></rect>
                        </g>
                        <g transform="translate(77.000000, 954.000000)">
                            <rect id="Rectangle" fill="#9246AA" x="0" y="0" width="124.444444" height="26.5090909" rx="13.2545455"></rect>
                            <rect id="Rectangle" fill="#9246AA" x="298.666667" y="0" width="62.2222222" height="26.5090909" rx="13.2545455"></rect>
                            <rect id="Rectangle" fill="#AA7046" x="385.777778" y="0" width="174.222222" height="26.5090909" rx="13.2545455"></rect>
                            <rect id="Rectangle" fill="#1F87D1" x="149.333333" y="0" width="124.444444" height="26.5090909" rx="13.2545455"></rect>
                        </g>
                    </g>
                </g>
                <g id="Group-9" opacity="0.195135939" mask="url(#mask-2)">
                    <g transform="translate(624.000000, -414.000000)">
                        <g id="Group" transform="translate(327.000000, 537.000000)">
                            <g id="Group-2" transform="translate(0.837174, 0.228509)">
                                <rect id="Rectangle" fill="#0D5191" x="0" y="0" width="74.5115228" height="25.2734337" rx="12.6367169"></rect>
                                <rect id="Rectangle" fill="#1F87D1" x="99.3486971" y="0" width="149.023046" height="25.2734337" rx="12.6367169"></rect>
                                <rect id="Rectangle" fill="#1F87D1" x="335.301853" y="0" width="111.767284" height="25.2734337" rx="12.6367169"></rect>
                                <rect id="Rectangle" fill="#A8A048" x="471.906311" y="0" width="111.767284" height="25.2734337" rx="12.6367169"></rect>
                                <rect id="Rectangle" fill="#C0C1C2" x="273.208917" y="0" width="37.2557614" height="25.2734337" rx="12.6367169"></rect>
                            </g>
                        </g>
                        <g id="Group" transform="translate(967.000000, 954.000000)">
                            <g id="Group-2" transform="translate(0.837174, 0.228509)">
                                <rect id="Rectangle" fill="#0D5191" x="0" y="0" width="74.5115228" height="25.2734337" rx="12.6367169"></rect>
                                <rect id="Rectangle" fill="#1F87D1" x="99.3486971" y="0" width="149.023046" height="25.2734337" rx="12.6367169"></rect>
                                <rect id="Rectangle" fill="#C0C1C2" x="273.208917" y="0" width="37.2557614" height="25.2734337" rx="12.6367169"></rect>
                            </g>
                        </g>
                        <g id="Group-5" transform="translate(154.000000, 628.000000)">
                            <g id="Group-2" transform="translate(0.000000, 0.281494)">
                                <rect id="Rectangle" fill="#1F87D1" x="0" y="0" width="210.985714" height="24.7322823" rx="12.3661412"></rect>
                                <rect id="Rectangle" fill="#A8A048" x="235.807563" y="0" width="136.520168" height="24.7322823" rx="12.3661412"></rect>
                                <rect id="Rectangle" fill="#1F87D1" x="397.14958" y="0" width="148.931092" height="24.7322823" rx="12.3661412"></rect>
                            </g>
                        </g>
                        <g id="Group-3" transform="translate(0.000000, 732.000000)">
                            <rect id="Rectangle" fill="#9246AA" x="0" y="0" width="136.70137" height="26.5090909" rx="13.2545455"></rect>
                            <rect id="Rectangle" fill="#A8A048" x="161.556164" y="0" width="173.983562" height="26.5090909" rx="13.2545455"></rect>
                        </g>
                        <g id="Group-3" transform="translate(819.000000, 781.000000)">
                            <rect id="Rectangle" fill="#9246AA" x="0" y="0" width="136.70137" height="26.5090909" rx="13.2545455"></rect>
                            <rect id="Rectangle" fill="#A8A048" x="161.556164" y="0" width="173.983562" height="26.5090909" rx="13.2545455"></rect>
                        </g>
                    </g>
                </g>
            </g>
        </g>
    </g>
</svg>